<svg width="1024" height="1024" viewBox="0 0 1024 1024" fill="none" xmlns="http://www.w3.org/2000/svg">
  <defs>
    <linearGradient id="bg" x1="90" y1="84" x2="934" y2="928" gradientUnits="userSpaceOnUse">
      <stop stop-color="#667A63"/>
      <stop offset="1" stop-color="#3B4A3F"/>
    </linearGradient>
    <linearGradient id="paper" x1="512" y1="252" x2="512" y2="772" gradientUnits="userSpaceOnUse">
      <stop stop-color="#FFF9F0"/>
      <stop offset="1" stop-color="#F3E9D7"/>
    </linearGradient>
    <linearGradient id="clip" x1="380" y1="126" x2="642" y2="298" gradientUnits="userSpaceOnUse">
      <stop stop-color="#E6CB84"/>
      <stop offset="1" stop-color="#C99E45"/>
    </linearGradient>
    <filter id="panelShadow" x="46" y="48" width="936" height="946" filterUnits="userSpaceOnUse" color-interpolation-filters="sRGB">
      <feFlood flood-opacity="0" result="BackgroundImageFix"/>
      <feColorMatrix in="SourceAlpha" type="matrix" values="0 0 0 0 0 0 0 0 0 0 0 0 0 0 0 0 0 0 127 0" result="hardAlpha"/>
      <feOffset dy="18"/>
      <feGaussianBlur stdDeviation="18"/>
      <feColorMatrix type="matrix" values="0 0 0 0 0.145098 0 0 0 0 0.188235 0 0 0 0 0.152941 0 0 0 0.2 0"/>
      <feBlend mode="normal" in2="BackgroundImageFix" result="effect1_dropShadow_1_2"/>
      <feBlend mode="normal" in="SourceGraphic" in2="effect1_dropShadow_1_2" result="shape"/>
    </filter>
    <filter id="paperShadow" x="116" y="156" width="792" height="770" filterUnits="userSpaceOnUse" color-interpolation-filters="sRGB">
      <feFlood flood-opacity="0" result="BackgroundImageFix"/>
      <feColorMatrix in="SourceAlpha" type="matrix" values="0 0 0 0 0 0 0 0 0 0 0 0 0 0 0 0 0 0 127 0" result="hardAlpha"/>
      <feOffset dy="6"/>
      <feGaussianBlur stdDeviation="10"/>
      <feColorMatrix type="matrix" values="0 0 0 0 0.239216 0 0 0 0 0.286275 0 0 0 0 0.247059 0 0 0 0.12 0"/>
      <feBlend mode="normal" in2="BackgroundImageFix" result="effect1_dropShadow_1_2"/>
      <feBlend mode="normal" in="SourceGraphic" in2="effect1_dropShadow_1_2" result="shape"/>
    </filter>
  </defs>

  <g filter="url(#panelShadow)">
    <rect x="90" y="84" width="844" height="844" rx="198" fill="url(#bg)"/>

    <g filter="url(#paperShadow)">
      <rect x="186" y="214" width="652" height="628" rx="152" fill="url(#paper)"/>
      <rect x="296" y="352" width="432" height="34" rx="17" fill="#C8D3C1"/>
      <rect x="296" y="450" width="360" height="34" rx="17" fill="#B6C5B1"/>
      <rect x="296" y="548" width="296" height="34" rx="17" fill="#A7B8A1"/>
      <rect x="296" y="646" width="398" height="34" rx="17" fill="#C0CCBE"/>
    </g>

    <rect x="326" y="112" width="372" height="148" rx="74" fill="url(#clip)"/>
    <rect x="418" y="138" width="188" height="84" rx="42" fill="#ECD7A8" fill-opacity="0.78"/>
    <path d="M454 130C454 91.3401 485.34 60 524 60C562.66 60 594 91.3401 594 130V166H454V130Z" fill="url(#clip)"/>
  </g>
</svg>
